<?xml version="1.0" encoding="UTF-8" standalone="no"?>
<!DOCTYPE svg PUBLIC "-//W3C//DTD SVG 1.1//EN" "http://www.w3.org/Graphics/SVG/1.1/DTD/svg11.dtd" [
	<!ENTITY stroke_color "#000000">
	<!ENTITY fill_color "#999999">
]>

<svg
   xmlns:dc="http://purl.org/dc/elements/1.1/"
   xmlns:cc="http://creativecommons.org/ns#"
   xmlns:rdf="http://www.w3.org/1999/02/22-rdf-syntax-ns#"
   xmlns:svg="http://www.w3.org/2000/svg"
   xmlns="http://www.w3.org/2000/svg"
   xmlns:sodipodi="http://sodipodi.sourceforge.net/DTD/sodipodi-0.dtd"
   xmlns:inkscape="http://www.inkscape.org/namespaces/inkscape"
   width="106.66885"
   height="106.6705"
   id="svg6314"
   sodipodi:version="0.32"
   inkscape:version="0.92.1 r15371"
   sodipodi:modified="true"
   version="1.0"
   sodipodi:docname="owner-icon.svg">
  <defs
     id="defs6316" />
  <sodipodi:namedview
     id="base"
     pagecolor="#ffffff"
     bordercolor="#666666"
     borderopacity="1.0"
     inkscape:pageopacity="0.0"
     inkscape:pageshadow="2"
     inkscape:zoom="3.4883934"
     inkscape:cx="57.769653"
     inkscape:cy="67.784486"
     inkscape:document-units="px"
     inkscape:current-layer="layer1"
     width="240px"
     height="330px"
     showgrid="true"
     showguides="true"
     inkscape:guide-bbox="true"
     inkscape:window-width="1432"
     inkscape:window-height="836"
     inkscape:window-x="0"
     inkscape:window-y="42"
     fit-margin-top="2"
     fit-margin-left="15"
     fit-margin-right="15"
     fit-margin-bottom="1.05"
     inkscape:window-maximized="1" />
  <metadata
     id="metadata6319">
    <rdf:RDF>
      <cc:Work
         rdf:about="">
        <dc:format>image/svg+xml</dc:format>
        <dc:type
           rdf:resource="http://purl.org/dc/dcmitype/StillImage" />
      </cc:Work>
    </rdf:RDF>
  </metadata>
  <g
     inkscape:label="Camada 1"
     inkscape:groupmode="layer"
     id="layer1"
     transform="translate(-75.018167,-122.94914)">
    <g
       transform="translate(78.07914,125.71839)"
       id="g14"
       style="fill:&fill_color;;stroke:&stroke_color;;stroke-width:1;stroke-miterlimit:4;stroke-dasharray:none">
      <g
         id="g12"
         style="fill:&fill_color;;stroke:&stroke_color;;stroke-width:1;stroke-miterlimit:4;stroke-dasharray:none">
        <path
           inkscape:connector-curvature="0"
           d="m 50.286,59.041 c 3.017,0 5.037,-1.845 5.122,-1.923 0.444,-0.413 0.47,-1.108 0.057,-1.552 -0.414,-0.445 -1.107,-0.469 -1.553,-0.057 -0.014,0.014 -1.497,1.336 -3.626,1.336 -2.142,0 -3.624,-1.327 -3.635,-1.335 -0.442,-0.414 -1.14,-0.39 -1.552,0.056 -0.413,0.444 -0.389,1.139 0.056,1.552 0.084,0.077 2.102,1.923 5.131,1.923 z"
           id="path2"
           style="fill:&fill_color;;stroke:&stroke_color;;stroke-width:1;stroke-miterlimit:4;stroke-dasharray:none" />
        <path
           inkscape:connector-curvature="0"
           d="m 41.609,49.975 c 0.449,0 0.864,-0.129 1.226,-0.337 -0.351,-0.122 -0.599,-0.452 -0.599,-0.82 0,-0.502 0.38,-0.892 0.875,-0.892 0.349,0 0.647,0.209 0.787,0.514 0.12,-0.292 0.189,-0.611 0.189,-0.946 0,-1.366 -1.105,-2.481 -2.478,-2.481 -1.373,0 -2.474,1.115 -2.474,2.481 0,1.365 1.101,2.481 2.474,2.481 z"
           id="path4"
           style="fill:&fill_color;;stroke:&stroke_color;;stroke-width:1;stroke-miterlimit:4;stroke-dasharray:none" />
        <path
           inkscape:connector-curvature="0"
           d="m 57.461,47.926 c 0.495,0 0.875,0.39 0.875,0.892 0,0.368 -0.248,0.698 -0.599,0.82 0.362,0.208 0.777,0.337 1.226,0.337 1.373,0 2.474,-1.116 2.474,-2.482 0,-1.366 -1.101,-2.481 -2.474,-2.481 -1.373,0 -2.478,1.115 -2.478,2.481 0,0.335 0.068,0.654 0.189,0.946 0.14,-0.304 0.438,-0.513 0.787,-0.513 z"
           id="path6"
           style="fill:&fill_color;;stroke:&stroke_color;;stroke-width:1;stroke-miterlimit:4;stroke-dasharray:none" />
        <path
           inkscape:connector-curvature="0"
           d="m 50.286,53.148 c 1.147,0 2.181,-0.473 2.909,-1.332 0.392,-0.463 0.335,-1.156 -0.128,-1.548 -0.461,-0.392 -1.154,-0.334 -1.548,0.127 -0.176,0.208 -0.57,0.557 -1.233,0.557 -0.669,0 -1.065,-0.349 -1.242,-0.557 -0.393,-0.462 -1.087,-0.52 -1.548,-0.126 -0.463,0.393 -0.519,1.086 -0.126,1.548 0.73,0.858 1.766,1.331 2.916,1.331 z"
           id="path8"
           style="fill:&fill_color;;stroke:&stroke_color;;stroke-width:1;stroke-miterlimit:4;stroke-dasharray:none" />
        <path
           inkscape:connector-curvature="0"
           d="m 95.381,53.618 -18.04,-15.13 -0.16,-0.065 C 76.735,38.242 76.282,38.102 75.827,38 c 0.087,-0.329 0.141,-0.679 0.167,-1.043 0.483,-0.102 0.964,-0.206 1.425,-0.311 1.594,-0.363 3.1,-0.706 4.133,-0.706 0.84,0 0.892,0.205 0.908,0.272 2.739,10.955 8.885,11.081 9.146,11.081 0.008,0 0.015,0 0.02,0 0.607,0 1.099,-0.492 1.099,-1.098 0,-0.271 -0.098,-0.519 -0.261,-0.71 -1.33,-2.369 -0.831,-5.064 -0.347,-7.673 0.469,-2.531 0.912,-4.922 -0.494,-6.717 -1.053,-1.343 -2.912,-2.048 -5.852,-2.219 -2.7,-0.162 -4.568,0.699 -6.756,1.704 -0.767,0.352 -1.608,0.734 -2.564,1.109 l 2.57,-2.278 c 0.288,-0.256 0.422,-0.644 0.352,-1.023 -0.071,-0.379 -0.335,-0.693 -0.696,-0.828 l -5.463,-2.038 c -0.334,-0.125 -0.714,-0.079 -1.009,0.126 -0.296,0.205 -0.473,0.541 -0.474,0.901 l -0.008,4.07 c -0.036,0.006 -0.072,0.012 -0.11,0.02 -0.399,-3.036 -1.166,-5.806 -2.342,-8.237 -1.582,-3.268 -3.838,-5.817 -6.682,-7.624 -2.696,-1.869 -6.381,-3.558 -9.612,-3.558 -0.853,0 -1.64,0.125 -2.357,0.358 -0.11,-10e-4 -0.215,-0.009 -0.325,-0.009 -0.11,0 -0.216,0.008 -0.325,0.009 -0.718,-0.233 -1.504,-0.358 -2.357,-0.358 -3.22,0 -6.891,1.678 -9.585,3.539 -2.864,1.811 -5.135,4.37 -6.725,7.656 -1.174,2.426 -1.942,5.187 -2.343,8.231 -0.03,-0.007 -0.062,-0.006 -0.093,-0.012 l -0.008,-4.087 c -0.001,-0.36 -0.178,-0.696 -0.474,-0.901 -0.293,-0.203 -0.672,-0.251 -1.009,-0.126 l -5.463,2.038 c -0.361,0.134 -0.625,0.449 -0.696,0.828 -0.07,0.379 0.063,0.767 0.352,1.023 l 2.57,2.278 c -0.956,-0.375 -1.797,-0.756 -2.564,-1.109 -2.188,-1.004 -4.045,-1.86 -6.756,-1.704 -2.939,0.17 -4.799,0.875 -5.852,2.219 -1.406,1.794 -0.963,4.186 -0.493,6.717 0.493,2.663 1.004,5.417 -0.433,7.82 -0.203,0.339 -0.208,0.761 -0.013,1.105 0.195,0.344 0.56,0.556 0.955,0.556 0.261,0 6.406,-0.126 9.146,-11.082 0.017,-0.067 0.068,-0.272 0.908,-0.272 1.033,0 2.539,0.343 4.133,0.706 0.455,0.104 0.931,0.207 1.407,0.307 0.026,0.364 0.08,0.713 0.166,1.042 -0.462,0.103 -0.923,0.245 -1.375,0.429 l -0.16,0.065 -18.042,15.132 c -2.06,1.105 -3.003,3.369 -2.298,5.553 l 0.059,0.145 c 0.413,0.845 1.073,1.518 1.914,1.95 0.261,0.176 0.514,0.32 0.766,0.435 L 19.07,74.268 c -0.263,0.404 -0.455,0.851 -0.55,1.329 -1.618,0.862 -2.566,2.942 -2.053,4.7 0.05,0.228 0.7,3.57 0.7,3.57 0.012,0.058 0.027,0.116 0.048,0.171 0.426,1.15 1.535,1.922 2.761,1.922 0.35,0 0.693,-0.062 1.021,-0.184 0.918,-0.34 1.459,-1.148 1.699,-2.035 1.595,3.599 4.547,6.005 7.402,6.005 0.644,0 1.262,-0.124 1.838,-0.368 1.632,-0.692 3.917,-2.409 3.123,-6.472 0.023,-0.018 0.047,-0.03 0.07,-0.048 0.637,-0.521 0.975,-1.063 1.151,-1.55 0.182,0.015 0.353,0.031 0.537,0.046 l 0.672,0.056 c 0.53,1.384 1.828,4.586 3.206,6.566 0.625,0.898 2.264,1.929 9.444,1.936 10e-4,0 10e-4,0 0.002,0 7.181,-0.006 8.819,-1.038 9.444,-1.936 1.38,-1.981 2.678,-5.186 3.207,-6.569 1.051,-0.092 2.011,-0.18 2.917,-0.279 -0.647,1.814 -0.812,3.402 -0.491,4.731 0.385,1.59 1.466,2.802 3.126,3.507 0.576,0.245 1.195,0.369 1.839,0.369 2.015,0 4.077,-1.196 5.677,-3.161 0.101,-0.053 0.205,-0.103 0.302,-0.16 0.217,0.457 0.559,0.846 1.004,1.132 0.428,0.274 0.889,0.413 1.369,0.413 1.509,0 2.664,-1.37 3.272,-2.388 1.249,-0.004 2.363,-0.799 2.774,-1.98 0.039,-0.112 0.06,-0.229 0.062,-0.348 0.048,-4.264 -0.457,-6.923 -1.504,-7.934 -0.118,-0.669 -0.411,-1.287 -0.847,-1.801 L 94.94,61.701 c 0.252,-0.115 0.504,-0.259 0.767,-0.435 0.84,-0.432 1.5,-1.105 1.913,-1.95 l 0.059,-0.145 c 0.705,-2.184 -0.239,-4.448 -2.298,-5.553 z m -21.456,-25.487 2.271,0.847 -2.276,2.018 z m -2.752,8.436 2.123,5.431 -4.667,-1.396 z M 49.752,14.866 c 0,-0.303 0.246,-0.549 0.549,-0.549 0.303,0 0.549,0.246 0.549,0.549 v 9.157 c 0,0.303 -0.245,0.549 -0.549,0.549 -0.304,0 -0.549,-0.246 -0.549,-0.549 z M 32.934,36.84 c 0.68,-0.223 1.516,-0.482 2.541,-0.745 0.027,0.682 0.111,1.259 0.111,1.647 0,2.093 6.58,3.79 14.698,3.79 1.291,0 2.536,-0.047 3.729,-0.128 V 37 c 0,-0.276 0.224,-0.5 0.5,-0.5 0.276,0 0.5,0.224 0.5,0.5 v 4.328 c 5.794,-0.508 9.969,-1.92 9.969,-3.586 0,-0.375 0.077,-0.927 0.107,-1.578 1.035,0.265 1.875,0.521 2.558,0.738 l 0.152,0.897 -1.8,2.855 c -0.184,0.291 -0.22,0.65 -0.1,0.972 0.12,0.321 0.385,0.568 0.714,0.667 l 0.77,0.23 -0.047,0.259 c -1.56,8.661 -8.369,17.619 -17.063,17.619 -8.688,0 -15.489,-8.958 -17.046,-17.619 l -0.045,-0.252 0.792,-0.237 c 0.329,-0.099 0.594,-0.345 0.714,-0.667 0.12,-0.322 0.084,-0.681 -0.1,-0.972 l -1.816,-2.88 z m -3.506,-0.273 2.543,4.035 -4.666,1.396 z m -5.023,-7.589 2.271,-0.847 0.005,2.866 z m 12.06,42.313 c -1.275,0 -2.076,-0.138 -2.4,-0.267 -0.515,-0.206 -1.103,0.006 -1.37,0.494 -0.266,0.487 -0.127,1.096 0.324,1.419 1.704,1.221 3.635,2.604 3.766,3.515 0.014,0.092 0.049,0.336 -0.305,0.788 -0.229,0.293 -0.634,0.491 -1.005,0.491 -0.118,0 -0.283,-0.021 -0.37,-0.093 -0.013,-0.012 -0.077,-0.067 -0.09,-0.079 0,0 -10e-4,0 -0.002,-10e-4 l -4.286,-3.619 c -0.463,-0.391 -1.155,-0.332 -1.547,0.131 -0.392,0.463 -0.333,1.156 0.131,1.548 l 4.298,3.628 c 0.004,0.004 0.01,0.005 0.014,0.008 0.004,0.003 0.005,0.008 0.009,0.012 0.221,0.2 0.635,0.688 0.624,1.104 -0.006,0.247 -0.18,0.512 -0.517,0.787 -0.829,0.68 -2.701,-0.71 -3.492,-1.522 -0.063,-0.065 -0.142,-0.102 -0.215,-0.148 l -2.717,-2.459 c -0.45,-0.406 -1.145,-0.373 -1.552,0.078 -0.407,0.45 -0.372,1.144 0.077,1.551 l 2.718,2.46 c 0.037,0.034 0.084,0.048 0.124,0.076 0.13,0.158 0.202,0.363 0.181,0.554 -0.02,0.168 -0.099,0.297 -0.243,0.394 -0.113,0.076 -0.26,0.113 -0.446,0.113 -0.97,0 -2.445,-0.952 -3.201,-1.643 l -1.705,-1.493 c -0.41,-0.358 -1.021,-0.365 -1.436,-0.01 -0.482,0.411 -1.277,1.404 -1.179,3.444 0.021,0.45 -0.16,1.069 -0.417,1.165 -0.358,0.134 -0.771,-0.042 -0.933,-0.377 -0.679,-3.485 -0.692,-3.532 -0.71,-3.595 -0.235,-0.807 0.238,-1.835 0.963,-2.212 0.14,-0.001 0.281,-0.029 0.415,-0.085 0.418,-0.175 0.686,-0.589 0.673,-1.042 -0.014,-0.51 0.196,-0.985 0.577,-1.302 0.554,-0.464 1.382,-0.495 1.979,-0.09 0.418,0.283 0.975,0.245 1.351,-0.093 0.375,-0.337 0.473,-0.888 0.234,-1.333 -0.365,-0.686 -0.197,-1.545 0.4,-2.043 0.554,-0.464 1.382,-0.495 1.979,-0.089 0.418,0.283 0.976,0.245 1.351,-0.093 0.375,-0.338 0.473,-0.887 0.235,-1.333 -0.366,-0.686 -0.198,-1.545 0.398,-2.043 0.259,-0.215 0.575,-0.343 0.916,-0.369 0.062,-0.005 0.053,0 0.113,-0.015 0.041,0 0.087,0.004 0.15,0.012 0.082,0.011 0.171,0.027 0.327,0.061 0.712,0.16 1.798,0.542 2.947,0.945 2.267,0.796 4.825,1.695 6.749,1.763 -0.29,0.268 -0.847,0.591 -1.786,0.764 -0.478,0.086 -1.303,0.143 -2.099,0.143 z m 4.326,6.383 c -0.715,0 -1.38,-0.07 -1.975,-0.182 0.154,-0.445 0.208,-0.896 0.143,-1.352 -0.071,-0.493 -0.272,-0.957 -0.569,-1.407 0.689,-0.169 1.513,-0.268 2.401,-0.268 2.403,0 4.351,0.719 4.351,1.605 0,0.886 -1.948,1.604 -4.351,1.604 z M 56.013,82 h -12 c -0.553,0 -1,-0.448 -1,-1 0,-0.552 0.447,-1 1,-1 h 12 c 0.553,0 1,0.448 1,1 0,0.552 -0.448,1 -1,1 z m -7.73,-5.424 c 0,-0.662 0.831,-1.199 1.857,-1.199 1.026,0 1.857,0.537 1.857,1.199 0,0.662 -0.831,1.199 -1.857,1.199 -1.025,0 -1.857,-0.537 -1.857,-1.199 z m 11.206,1.098 c -2.403,0 -4.351,-0.719 -4.351,-1.605 0,-0.358 0.328,-0.685 0.864,-0.951 0.751,0.233 1.622,0.362 2.482,0.405 V 76 c 0,0.552 0.447,1 1,1 0.553,0 1,-0.448 1,-1 v -0.525 c 0.788,-0.08 1.554,-0.238 2.2,-0.487 0.711,0.286 1.156,0.663 1.156,1.082 0,0.886 -1.948,1.604 -4.351,1.604 z m -2.358,-4.603 c 0.551,-0.149 1.354,-0.275 2.357,-0.275 1.003,0 1.807,0.126 2.357,0.275 -0.551,0.148 -1.354,0.274 -2.357,0.274 -1.003,0 -1.806,-0.126 -2.357,-0.274 z m 25.316,9.928 c -0.173,0.299 -0.556,0.451 -0.897,0.333 -0.554,-0.193 -1.168,0.087 -1.384,0.636 -0.265,0.676 -1.138,1.794 -1.632,1.794 h -0.001 c -0.022,0 -0.081,0 -0.183,-0.065 -0.146,-0.094 -0.229,-0.222 -0.252,-0.392 -0.028,-0.208 0.047,-0.44 0.195,-0.606 0.402,-0.448 0.368,-1.135 -0.076,-1.542 -0.21,-0.193 -0.476,-0.289 -0.741,-0.289 -0.294,0 -0.587,0.117 -0.803,0.348 -0.783,0.835 -2.627,2.26 -3.475,1.595 -0.344,-0.27 -0.523,-0.532 -0.535,-0.781 -0.019,-0.419 0.388,-0.917 0.574,-1.093 0.012,-0.011 0.074,-0.068 0.086,-0.079 0.433,-0.412 0.432,-1.07 0.03,-1.512 -0.402,-0.441 -1.107,-0.459 -1.559,-0.066 -0.123,0.107 -0.298,0.13 -0.423,0.13 -0.367,0 -0.77,-0.19 -1,-0.473 -0.231,-0.284 0.162,-1.484 0.423,-2.279 0.718,-2.19 1.919,-5.856 -2.494,-7.774 -0.275,-0.12 -0.586,-0.123 -0.863,-0.005 -0.46,0.193 -1.538,0.318 -2.746,0.318 -0.685,0 -1.361,-0.041 -1.766,-0.107 -0.952,-0.155 -1.519,-0.471 -1.813,-0.735 1.93,-0.105 4.476,-1.056 6.737,-1.9 1.145,-0.427 2.227,-0.831 2.997,-1.02 0.097,-0.023 0.188,-0.041 0.276,-0.054 0.055,-0.008 0.104,-0.014 0.138,-0.015 0.039,0.006 0.078,0.011 0.117,0.013 0.343,0.02 0.664,0.142 0.927,0.352 0.61,0.489 0.796,1.349 0.442,2.044 -0.229,0.45 -0.121,0.998 0.261,1.328 0.384,0.331 0.941,0.357 1.353,0.066 0.591,-0.418 1.423,-0.404 1.989,0.051 0.61,0.489 0.796,1.349 0.442,2.044 -0.229,0.45 -0.121,0.998 0.261,1.328 0.384,0.331 0.941,0.357 1.353,0.066 0.589,-0.416 1.429,-0.399 1.99,0.05 0.388,0.312 0.608,0.784 0.604,1.297 -0.003,0.455 0.3,0.836 0.724,1.002 0.003,10e-4 0.007,0.003 0.011,0.004 0.405,0.697 0.724,3.353 0.713,5.988 z M 95.611,58.42 c -0.213,0.4 -0.531,0.707 -0.947,0.911 l -0.139,0.082 c -0.223,0.153 -0.413,0.259 -0.601,0.333 L 93.732,59.823 80.367,72.3 c -0.395,-0.106 -0.805,-0.162 -1.219,-0.139 -0.095,-1.015 -0.588,-1.984 -1.423,-2.653 -0.737,-0.591 -1.696,-0.883 -2.622,-0.836 -0.054,-0.571 -0.246,-1.12 -0.542,-1.617 l 1.071,-1.327 6.562,-8.13 c 0.381,-0.472 0.308,-1.164 -0.165,-1.544 -0.474,-0.383 -1.164,-0.307 -1.544,0.165 l -1.132,1.402 -6.478,-4.6 c -0.493,-0.353 -1.181,-0.235 -1.531,0.26 -0.352,0.495 -0.235,1.18 0.26,1.531 l 6.367,4.521 -2.364,2.929 -2.666,3.303 c -0.437,-0.212 -0.897,-0.346 -1.34,-0.369 -0.209,-0.034 -0.443,-0.038 -0.817,0.015 -0.135,0.021 -0.282,0.049 -0.521,0.106 -0.835,0.205 -1.923,0.611 -3.181,1.081 -2.113,0.789 -4.743,1.771 -6.31,1.771 l -0.149,-0.003 c -0.018,0 -0.089,-0.002 -0.106,-0.002 -1.013,0 -1.775,0.687 -1.855,1.671 -0.009,0.104 0.005,0.213 0.013,0.32 -4.524,-0.263 -8.127,-0.273 -8.536,-0.273 -0.372,0 -3.395,0.008 -7.35,0.208 0.003,-0.086 0.016,-0.174 0.008,-0.257 -0.089,-0.973 -0.848,-1.652 -1.845,-1.652 -0.024,0 -0.125,0.003 -0.149,0.005 -1.542,0.105 -4.288,-0.869 -6.474,-1.636 -1.265,-0.444 -2.355,-0.828 -3.167,-1.01 -0.013,-0.003 -0.096,-0.021 -0.108,-0.024 -0.159,-0.034 -0.307,-0.06 -0.464,-0.08 -0.317,-0.042 -0.589,-0.034 -0.764,-0.001 -0.653,0.061 -1.263,0.293 -1.796,0.659 l -3.532,-4.377 -1.923,-2.383 6.367,-4.521 c 0.495,-0.351 0.611,-1.037 0.26,-1.531 -0.351,-0.495 -1.037,-0.611 -1.531,-0.26 l -6.477,4.6 -1.131,-1.402 c -0.38,-0.471 -1.07,-0.546 -1.544,-0.165 -0.473,0.381 -0.546,1.072 -0.165,1.544 l 1.046,1.297 v 0 l 7.242,8.975 c -0.137,0.356 -0.239,0.724 -0.268,1.104 -0.934,-0.036 -1.873,0.281 -2.598,0.885 -0.819,0.684 -1.291,1.66 -1.367,2.673 -0.567,-0.023 -1.124,0.098 -1.641,0.318 L 6.965,59.964 6.815,59.823 6.623,59.746 C 6.435,59.671 6.245,59.566 6.025,59.413 L 5.883,59.33 C 5.467,59.125 5.149,58.819 4.936,58.419 4.604,57.27 5.146,56.085 6.275,55.516 l 18.074,-15.12 c 0.444,-0.167 0.893,-0.263 1.34,-0.326 l -1.261,3.226 c -0.153,0.391 -0.069,0.835 0.215,1.144 0.211,0.229 0.506,0.354 0.808,0.354 0.105,0 0.211,-0.015 0.314,-0.046 l 5.208,-1.558 c 0.033,0.009 0.07,0.026 0.102,0.033 1.734,9.533 9.379,19.373 19.198,19.373 9.825,0 17.478,-9.84 19.216,-19.373 0.036,-0.009 0.077,-0.027 0.114,-0.037 l 5.22,1.562 c 0.104,0.031 0.209,0.046 0.314,0.046 0.007,0 0.015,0 0.02,0 0.607,0 1.099,-0.492 1.099,-1.098 0,-0.213 -0.061,-0.413 -0.166,-0.582 l -1.188,-3.04 c 0.433,0.064 0.868,0.159 1.298,0.321 l 17.861,14.98 0.212,0.139 c 1.128,0.572 1.67,1.757 1.338,2.906 z"
           id="path10"
           style="fill:&fill_color;;stroke:&stroke_color;;stroke-width:1;stroke-miterlimit:4;stroke-dasharray:none" />
      </g>
    </g>
  </g>
</svg>
